<svg version="1.0" xmlns="http://www.w3.org/2000/svg" width="373.333" height="373.333" viewBox="0 0 280 280"><path d="M77.3 38.8c-1.8.2-3.3.7-3.3 1.1 0 .7 2.9 13.5 8.5 37.1 1.5 6.3 3.3 14.2 4.1 17.5.7 3.3 2.6 11.6 4.2 18.5l2.8 12.5-4.8.3-4.8.3v10l-3.7-3.5c-6.2-5.9-11.7-8.1-20.3-8.1-20.2.1-32.8 15.2-32.8 39.4 0 13.4 3 22.7 9.9 30.6 5.3 6 11.1 8.7 19.4 9.3 9.2.6 15.5-1.4 21.4-6.8 2.4-2.2 4.5-4 4.6-4 .2 0 .1 4.1-.1 9-.6 14-3.3 17.2-15.2 17.3-8.5.1-11.1-.8-12.7-4.7-1.2-2.9-2-3.4-4.7-3.4-1.8-.1-6.4-.5-10.3-1.1-9-1.4-9.2-1.4-9.8.3-.9 2.3 1.2 9.9 3.9 13.8 5.6 8.6 15.7 11.9 34.4 11.4 13.7-.3 19.1-1.8 25.7-7.1 4.3-3.4 8-11.2 9.1-19.1.4-3.2.7-13.2.6-22.2 0-16 .6-19 2.3-10.2l.9 4.5h32.7l2.9-11c1.6-6.1 3.1-11.7 3.3-12.5.2-.8 2.2-8.3 4.4-16.5 2.2-8.3 5.4-20.4 7.1-27 1.8-6.6 4.7-17.5 6.4-24.2 1.8-6.7 3.4-12.5 3.7-12.8.3-.3 1.3 2.3 2.2 5.7 1 3.5 3.5 13.2 5.8 21.7 2.2 8.4 4.2 16.1 4.4 17 .2.9 1.1 4.3 2 7.6.9 3.3 1.8 6.7 2 7.5.3 1.8 6.4 25.1 9.4 36.2 1.2 4.3 2.1 8 2.1 8.3 0 .3 7.2.5 15.9.5 17.6 0 16.1.6 17.7-7 .9-4.3 0-.5 7.9-33 3.6-15.1 7.9-32.9 9.4-39.5 7.1-29.7 11.3-47.5 12.7-53 2.6-10.8 2.6-10.5-.4-10.6-11.8-.3-25.6.1-26.2.8-.5.6-7 29-9.6 41.8-.3 1.9-2 9.5-9.3 43-2.8 12.9-2.8 13-3.9 9-1.5-5.4-16.3-64.5-16.7-66.8-.2-1-.7-2.7-1-3.7-.3-1-.8-2.9-1-4.2-.2-1.3-1.4-6.2-2.6-11.1-1.9-7.3-2.6-8.7-4.3-8.8-2.5-.1-13.1-.1-24.7 0l-8.5.1-1.4 5.2c-.8 2.9-1.5 5.7-1.6 6.3-.5 2.2-8.4 32.3-9.4 35.5-.5 1.9-3.5 13.2-6.6 25-3 11.8-5.8 22.2-6.1 23-.6 1.5-2.7-5.4-3.6-11.4-.5-3-7.8-37.2-9.7-45.1-.5-2.2-2.6-11.8-4.6-21.3-2.9-13.4-4.1-17.2-5.3-17.3-7.5-.3-22.2-.3-24.8-.1zm-3.2 104.5c5.3 3.5 8.3 10.5 8.3 19.6 0 4.2-.6 9.3-1.3 11.4-3.6 10.7-14.6 15.8-23.1 10.6-6.7-4.1-9.1-9.8-9.1-21.8 0-14.4 5.8-22.1 16.6-22.1 3.7 0 6.2.6 8.6 2.3z"/></svg>